<!DOCTYPE svg PUBLIC "-//W3C//DTD SVG 20010904//EN" "http://www.w3.org/TR/2001/REC-SVG-20010904/DTD/svg10.dtd">
<svg version="1.0" xmlns="http://www.w3.org/2000/svg" width="512px" height="512px" viewBox="0 0 5120 5120" preserveAspectRatio="xMidYMid meet">
<g id="layer101" fill="#000000" stroke="none">
 <path d="M0 2560 l0 -2560 2560 0 2560 0 0 2560 0 2560 -2560 0 -2560 0 0 -2560z m2256 1844 c205 -399 210 -407 259 -440 l50 -34 677 0 678 0 0 -575 0 -575 -346 0 -347 0 -43 -36 c-24 -19 -44 -40 -44 -45 0 -8 563 -1106 731 -1427 l49 -93 0 -434 0 -435 -423 0 -423 0 -36 72 c-21 40 -82 159 -136 263 -54 105 -131 254 -172 333 -67 131 -79 147 -132 188 l-58 44 -675 0 -675 0 0 575 0 575 363 0 363 0 33 34 33 34 -113 219 c-62 120 -240 465 -396 768 l-283 550 0 422 0 423 429 0 428 0 209 -406z"/>
 </g>
<g id="layer102" fill="#313131" stroke="none">
 <path d="M2898 3933 c188 -2 496 -2 685 0 188 1 34 2 -343 2 -377 0 -531 -1 -342 -2z"/>
 </g>

</svg>