<?xml version="1.0" standalone="no"?>
<!DOCTYPE svg PUBLIC "-//W3C//DTD SVG 20010904//EN"
 "http://www.w3.org/TR/2001/REC-SVG-20010904/DTD/svg10.dtd">
<svg version="1.0" xmlns="http://www.w3.org/2000/svg"
 width="128.000000pt" height="128.000000pt" viewBox="0 0 128.000000 128.000000"
 preserveAspectRatio="xMidYMid meet">
<metadata>
Created by potrace 1.15, written by Peter Selinger 2001-2017
</metadata>
<g transform="translate(0.000000,128.000000) scale(0.100000,-0.100000)"
fill="#000000" stroke="none">
<path d="M0 640 l0 -640 640 0 640 0 0 640 0 640 -640 0 -640 0 0 -640z m454
261 c-95 -45 -120 -69 -36 -35 63 25 162 44 235 44 56 0 180 -26 220 -47 16
-8 31 -12 35 -9 3 3 -30 22 -72 42 -43 19 -76 38 -73 40 10 10 88 -10 138 -35
48 -23 58 -33 87 -93 39 -80 70 -197 79 -293 5 -67 4 -71 -23 -99 -38 -38 -94
-65 -149 -73 -39 -5 -47 -3 -64 18 -27 32 -26 33 12 47 18 7 46 25 61 41 l28
29 -54 -26 c-142 -68 -301 -70 -447 -6 -30 14 -56 23 -58 20 -6 -6 89 -66 104
-66 11 0 8 -8 -8 -31 -21 -30 -25 -31 -70 -26 -60 7 -119 37 -153 78 -25 29
-27 37 -21 88 10 91 34 189 66 273 34 87 62 113 155 142 87 26 91 16 8 -23z"/>
<path d="M460 650 c-31 -31 -27 -93 6 -119 30 -24 43 -26 78 -10 50 23 57 103
13 134 -30 21 -73 19 -97 -5z"/>
<path d="M723 644 c-21 -21 -24 -32 -19 -62 10 -69 75 -94 121 -47 33 32 34
83 2 113 -31 30 -72 28 -104 -4z"/>
</g>
</svg>
