<?xml version="1.0" standalone="no"?>
<!DOCTYPE svg PUBLIC "-//W3C//DTD SVG 20010904//EN"
 "http://www.w3.org/TR/2001/REC-SVG-20010904/DTD/svg10.dtd">
<svg version="1.0" xmlns="http://www.w3.org/2000/svg"
 width="128.000000pt" height="128.000000pt" viewBox="0 0 128.000000 128.000000"
 preserveAspectRatio="xMidYMid meet">
<metadata>
Created by potrace 1.15, written by Peter Selinger 2001-2017
</metadata>
<g transform="translate(0.000000,128.000000) scale(0.100000,-0.100000)"
fill="#000000" stroke="none">
<path d="M0 640 l0 -640 640 0 640 0 0 640 0 640 -640 0 -640 0 0 -640z m1074
314 c9 -8 16 -21 16 -28 0 -7 -101 -90 -225 -185 l-225 -172 -212 162 c-267
203 -245 182 -224 213 l16 26 420 0 c367 0 420 -2 434 -16z m-781 -179 c48
-36 87 -69 87 -73 0 -4 -40 -47 -89 -96 -70 -69 -90 -84 -95 -71 -9 25 -7 305
2 305 5 0 48 -29 95 -65z m797 -91 c0 -86 -4 -154 -9 -152 -20 8 -181 162
-178 171 4 14 160 135 175 136 9 1 12 -36 12 -155z m-343 -92 l105 81 119
-119 c114 -114 119 -120 119 -161 0 -76 20 -73 -449 -73 -311 0 -420 3 -429
12 -7 7 -12 32 -12 57 0 45 2 48 116 162 l117 117 105 -79 104 -78 105 81z"/>
</g>
</svg>
