<?xml version="1.0" standalone="no"?>
<!DOCTYPE svg PUBLIC "-//W3C//DTD SVG 20010904//EN"
 "http://www.w3.org/TR/2001/REC-SVG-20010904/DTD/svg10.dtd">
<svg version="1.0" xmlns="http://www.w3.org/2000/svg"
 width="128.000000pt" height="128.000000pt" viewBox="0 0 128.000000 128.000000"
 preserveAspectRatio="xMidYMid meet">
<metadata>
Created by potrace 1.15, written by Peter Selinger 2001-2017
</metadata>
<g transform="translate(0.000000,128.000000) scale(0.100000,-0.100000)"
fill="#000000" stroke="none">
<path d="M0 640 l0 -640 640 0 640 0 0 640 0 640 -640 0 -640 0 0 -640z m833
428 c188 -90 285 -250 275 -460 -3 -83 -8 -103 -41 -172 -47 -98 -128 -181
-222 -226 -87 -42 -93 -37 -97 88 -2 53 -7 105 -12 115 -7 14 -3 17 15 17 38
0 124 45 146 76 48 69 57 173 22 239 -14 27 -21 56 -20 87 3 65 -12 90 -47 82
-15 -4 -40 -14 -57 -22 -22 -11 -65 -16 -163 -16 -74 -1 -136 2 -138 6 -2 3
-27 14 -55 23 -62 21 -69 15 -69 -63 0 -33 -8 -68 -20 -92 -14 -27 -20 -59
-20 -102 1 -114 52 -183 155 -209 28 -7 51 -14 53 -14 1 -1 -5 -16 -14 -33
-10 -20 -25 -34 -42 -38 -57 -12 -62 -12 -57 -4 3 4 -2 10 -9 13 -8 3 -17 3
-19 -1 -2 -4 -3 -2 -1 4 5 22 -62 84 -90 84 -32 0 -33 -13 -2 -33 12 -9 30
-31 39 -49 25 -53 51 -71 112 -76 l55 -4 0 -49 c0 -26 -5 -51 -11 -54 -21 -14
-143 58 -205 119 -249 249 -151 661 185 783 57 21 80 23 172 20 97 -3 112 -6
182 -39z"/>
</g>
</svg>
