<?xml version="1.0" standalone="no"?>
<!DOCTYPE svg PUBLIC "-//W3C//DTD SVG 20010904//EN"
 "http://www.w3.org/TR/2001/REC-SVG-20010904/DTD/svg10.dtd">
<svg version="1.0" xmlns="http://www.w3.org/2000/svg"
 width="128.000000pt" height="128.000000pt" viewBox="0 0 128.000000 128.000000"
 preserveAspectRatio="xMidYMid meet">
<metadata>
Created by potrace 1.15, written by Peter Selinger 2001-2017
</metadata>
<g transform="translate(0.000000,128.000000) scale(0.100000,-0.100000)"
fill="#000000" stroke="none">
<path d="M0 640 l0 -640 640 0 640 0 0 640 0 640 -640 0 -640 0 0 -640z m347
444 c58 -37 66 -119 17 -168 -56 -55 -146 -40 -179 31 -49 103 66 199 162 137z
m632 -289 c17 -8 42 -28 56 -43 46 -49 55 -105 55 -344 l0 -218 -94 0 -94 0
-4 194 c-3 179 -5 197 -24 223 -18 23 -30 29 -72 31 -95 6 -112 -37 -112 -280
l0 -168 -95 0 -95 0 0 305 0 305 90 0 90 0 0 -37 0 -37 33 32 c47 45 100 63
174 57 34 -2 76 -11 92 -20z m-599 -300 l0 -305 -95 0 -95 0 0 305 0 305 95 0
95 0 0 -305z"/>
</g>
</svg>
