<?xml version="1.0" standalone="no"?>
<!DOCTYPE svg PUBLIC "-//W3C//DTD SVG 20010904//EN"
 "http://www.w3.org/TR/2001/REC-SVG-20010904/DTD/svg10.dtd">
<svg version="1.0" xmlns="http://www.w3.org/2000/svg"
 width="128.000000pt" height="128.000000pt" viewBox="0 0 128.000000 128.000000"
 preserveAspectRatio="xMidYMid meet">
<metadata>
Created by potrace 1.15, written by Peter Selinger 2001-2017
</metadata>
<g transform="translate(0.000000,128.000000) scale(0.100000,-0.100000)"
fill="#000000" stroke="none">
<path d="M0 640 l0 -640 640 0 640 0 0 640 0 640 -640 0 -640 0 0 -640z m863
268 c48 -133 122 -323 134 -343 10 -16 12 25 13 198 l0 217 60 0 60 0 0 -330
0 -330 -74 0 -74 0 -40 103 c-21 56 -59 154 -83 217 l-44 115 -3 -217 -2 -218
-60 0 -60 0 0 330 0 330 73 0 73 0 27 -72z m-351 -106 c61 -38 72 -78 76 -294
l4 -188 -71 0 c-56 0 -71 3 -71 15 0 19 -2 19 -45 -6 -47 -28 -160 -24 -202 7
-53 40 -67 69 -67 142 0 122 50 163 210 170 90 4 104 7 104 22 0 9 -10 25 -21
36 -26 23 -130 24 -175 1 -16 -8 -39 -18 -51 -21 -22 -7 -23 -5 -23 53 0 58 1
60 33 70 60 18 72 20 167 18 79 -2 102 -6 132 -25z"/>
<path d="M330 543 c-50 -18 -68 -84 -32 -116 26 -24 87 -22 112 3 24 24 40 62
40 96 0 22 -3 24 -52 23 -29 0 -60 -3 -68 -6z"/>
</g>
</svg>
