<?xml version="1.0" standalone="no"?>
<!DOCTYPE svg PUBLIC "-//W3C//DTD SVG 20010904//EN"
 "http://www.w3.org/TR/2001/REC-SVG-20010904/DTD/svg10.dtd">
<svg version="1.0" xmlns="http://www.w3.org/2000/svg"
 width="128.000000pt" height="128.000000pt" viewBox="0 0 128.000000 128.000000"
 preserveAspectRatio="xMidYMid meet">
<metadata>
Created by potrace 1.15, written by Peter Selinger 2001-2017
</metadata>
<g transform="translate(0.000000,128.000000) scale(0.100000,-0.100000)"
fill="#000000" stroke="none">
<path d="M0 640 l0 -640 640 0 640 0 0 640 0 640 -640 0 -640 0 0 -640z m1140
208 l0 -323 -137 -137 -138 -138 -100 0 -101 0 -64 -65 -64 -65 -73 0 -73 0 0
65 0 65 -125 0 -125 0 0 373 0 372 30 79 c17 44 33 83 36 87 3 5 214 9 470 9
l464 0 0 -322z"/>
<path d="M300 745 l0 -325 105 0 105 0 0 -67 1 -68 62 68 62 68 132 -1 131 0
71 77 71 78 0 248 0 247 -370 0 -370 0 0 -325z m340 15 l0 -140 -50 0 -50 0 0
133 c0 74 3 137 7 140 3 4 26 7 50 7 l43 0 0 -140z m250 0 l0 -140 -50 0 -50
0 0 133 c0 74 3 137 7 140 3 4 26 7 50 7 l43 0 0 -140z"/>
</g>
</svg>
