<?xml version="1.0" standalone="no"?>
<!DOCTYPE svg PUBLIC "-//W3C//DTD SVG 20010904//EN"
 "http://www.w3.org/TR/2001/REC-SVG-20010904/DTD/svg10.dtd">
<svg version="1.0" xmlns="http://www.w3.org/2000/svg"
 width="128.000000pt" height="128.000000pt" viewBox="0 0 128.000000 128.000000"
 preserveAspectRatio="xMidYMid meet">
<metadata>
Created by potrace 1.15, written by Peter Selinger 2001-2017
</metadata>
<g transform="translate(0.000000,128.000000) scale(0.100000,-0.100000)"
fill="#000000" stroke="none">
<path d="M0 640 l0 -640 640 0 640 0 0 640 0 640 -640 0 -640 0 0 -640z m887
292 c29 -21 33 -21 74 -7 23 8 44 13 46 11 2 -2 -11 -21 -29 -41 -29 -34 -30
-37 -10 -31 70 20 69 20 30 -20 -31 -33 -38 -49 -47 -110 -20 -133 -58 -210
-145 -292 -94 -89 -208 -128 -346 -119 -44 2 -100 14 -135 28 l-60 23 40 8
c77 17 110 28 145 49 l34 21 -52 20 c-37 14 -60 30 -77 56 l-25 37 37 5 c36 5
37 6 13 14 -49 16 -100 80 -100 125 0 17 4 18 30 11 33 -9 39 0 14 21 -38 31
-54 104 -38 166 6 22 9 21 57 -23 60 -54 125 -88 204 -109 79 -21 83 -20 83
15 0 36 23 96 48 124 45 50 151 59 209 18z"/>
</g>
</svg>
