<?xml version="1.0" standalone="no"?>
<!DOCTYPE svg PUBLIC "-//W3C//DTD SVG 20010904//EN"
 "http://www.w3.org/TR/2001/REC-SVG-20010904/DTD/svg10.dtd">
<svg version="1.0" xmlns="http://www.w3.org/2000/svg"
 width="128.000000pt" height="128.000000pt" viewBox="0 0 128.000000 128.000000"
 preserveAspectRatio="xMidYMid meet">
<metadata>
Created by potrace 1.15, written by Peter Selinger 2001-2017
</metadata>
<g transform="translate(0.000000,128.000000) scale(0.100000,-0.100000)"
fill="#000000" stroke="none">
<path d="M0 640 l0 -640 640 0 640 0 0 640 0 640 -640 0 -640 0 0 -640z m907
415 c68 -20 128 -80 148 -148 21 -72 21 -462 0 -534 -20 -68 -80 -128 -148
-148 -68 -20 -483 -21 -540 -1 -54 20 -104 61 -130 109 -21 40 -22 56 -25 280
-4 281 3 320 69 386 63 63 98 69 355 70 169 1 232 -3 271 -14z"/>
<path d="M400 988 c-54 -15 -97 -63 -111 -122 -7 -32 -10 -126 -7 -256 3 -217
8 -240 56 -283 43 -39 89 -46 295 -47 112 0 217 5 241 11 50 12 98 57 115 108
14 44 15 417 0 475 -12 50 -57 98 -108 115 -42 14 -431 13 -481 -1z m356 -164
c68 -42 107 -117 102 -196 -12 -168 -191 -261 -334 -172 -68 42 -107 117 -102
196 12 168 191 261 334 172z"/>
<path d="M573 769 c-77 -38 -105 -142 -55 -208 50 -67 116 -85 186 -52 47 23
86 82 86 131 0 48 -39 108 -84 129 -53 26 -80 26 -133 0z"/>
</g>
</svg>
