<?xml version="1.0" standalone="no"?>
<!DOCTYPE svg PUBLIC "-//W3C//DTD SVG 20010904//EN"
 "http://www.w3.org/TR/2001/REC-SVG-20010904/DTD/svg10.dtd">
<svg version="1.0" xmlns="http://www.w3.org/2000/svg"
 width="128.000000pt" height="128.000000pt" viewBox="0 0 128.000000 128.000000"
 preserveAspectRatio="xMidYMid meet">
<metadata>
Created by potrace 1.15, written by Peter Selinger 2001-2017
</metadata>
<g transform="translate(0.000000,128.000000) scale(0.100000,-0.100000)"
fill="#000000" stroke="none">
<path d="M0 1067 l0 -212 99 -99 98 -98 5 113 c5 134 23 185 86 241 63 57 97
63 352 63 266 0 293 -6 361 -74 68 -68 74 -95 74 -361 0 -255 -6 -289 -63
-352 -56 -63 -107 -81 -241 -86 l-113 -5 98 -98 99 -99 212 0 213 0 0 640 0
640 -640 0 -640 0 0 -213z"/>
<path d="M431 990 c-62 -10 -97 -32 -122 -80 -16 -30 -19 -58 -19 -190 l0
-155 138 -138 137 -137 155 0 c142 0 158 2 195 23 67 37 77 72 83 271 7 273
-12 352 -95 392 -32 15 -69 18 -228 20 -104 2 -214 -1 -244 -6z m287 -142 c48
-14 102 -66 125 -117 77 -174 -85 -360 -266 -307 -103 30 -181 146 -162 244
15 81 78 159 147 180 69 22 85 22 156 0z"/>
<path d="M563 760 c-117 -71 -63 -260 75 -260 84 0 142 56 142 138 0 85 -56
142 -140 142 -27 0 -58 -8 -77 -20z"/>
</g>
</svg>
