<?xml version="1.0" standalone="no"?>
<!DOCTYPE svg PUBLIC "-//W3C//DTD SVG 20010904//EN"
 "http://www.w3.org/TR/2001/REC-SVG-20010904/DTD/svg10.dtd">
<svg version="1.0" xmlns="http://www.w3.org/2000/svg"
 width="64.000000pt" height="64.000000pt" viewBox="0 0 64.000000 64.000000"
 preserveAspectRatio="xMidYMid meet">
<metadata>
Created by potrace 1.15, written by Peter Selinger 2001-2017
</metadata>
<g transform="translate(0.000000,64.000000) scale(0.100000,-0.100000)"
fill="#000000" stroke="none">
<path d="M0 320 l0 -320 320 0 320 0 0 320 0 320 -320 0 -320 0 0 -320z m450
93 c17 -14 36 -37 41 -50 5 -13 17 -23 27 -23 11 0 31 -9 46 -21 32 -25 35
-70 6 -99 -20 -20 -31 -20 -245 -18 -124 2 -225 7 -225 11 0 5 -5 5 -10 2 -5
-3 -10 1 -10 10 0 9 -4 13 -10 10 -6 -4 -10 8 -10 30 0 22 4 34 10 30 6 -3 10
1 10 10 0 9 5 13 10 10 6 -3 10 -2 10 4 0 5 9 8 20 6 12 -2 24 4 30 16 18 32
100 74 100 50 0 -4 7 -8 15 -8 8 0 15 4 15 9 0 5 7 16 15 24 8 9 15 13 15 9 0
-3 8 -1 18 4 33 20 89 13 122 -16z"/>
</g>
</svg>
