<?xml version="1.0" standalone="no"?>
<!DOCTYPE svg PUBLIC "-//W3C//DTD SVG 20010904//EN"
 "http://www.w3.org/TR/2001/REC-SVG-20010904/DTD/svg10.dtd">
<svg version="1.0" xmlns="http://www.w3.org/2000/svg"
 width="128.000000pt" height="128.000000pt" viewBox="0 0 128.000000 128.000000"
 preserveAspectRatio="xMidYMid meet">
<metadata>
Created by potrace 1.15, written by Peter Selinger 2001-2017
</metadata>
<g transform="translate(0.000000,128.000000) scale(0.100000,-0.100000)"
fill="#000000" stroke="none">
<path d="M0 640 l0 -640 640 0 640 0 0 640 0 640 -640 0 -640 0 0 -640z m985
275 c22 -11 46 -33 53 -48 22 -45 33 -215 23 -326 -18 -189 -25 -193 -350
-199 -268 -5 -400 6 -440 35 -41 31 -53 89 -53 263 0 235 20 275 144 291 35 4
180 6 323 5 235 -2 264 -4 300 -21z"/>
<path d="M550 640 c0 -66 3 -120 6 -120 13 0 204 113 204 120 0 7 -191 120
-204 120 -3 0 -6 -54 -6 -120z"/>
</g>
</svg>
